<svg width="279" height="33" viewBox="0 0 279 33" fill="none" xmlns="http://www.w3.org/2000/svg">
<path d="M261.328 23.6078H267.672V29H261.328V23.6078Z" fill="#947151"/>
<path d="M264.5 15.8141L250.906 24.9672C250.906 24.9672 257.477 26.5078 264.5 26.5078C271.523 26.5078 278.094 24.9672 278.094 24.9672L264.5 15.8141Z" fill="#71A03A"/>
<path d="M264.5 10.6937L253.172 19.8469C253.172 19.8469 258.655 21.3875 264.5 21.3875C270.345 21.3875 275.828 19.8469 275.828 19.8469L264.5 10.6937Z" fill="#76AA3F"/>
<path d="M264.5 5.57344L255.438 14.7266C255.438 14.7266 259.833 16.2672 264.5 16.2672C269.167 16.2672 273.562 14.7266 273.562 14.7266L264.5 5.57344Z" fill="#7CB545"/>
<path d="M264.5 0.453125L257.703 9.425C257.703 9.425 260.966 11.1469 264.5 11.1469C268.034 11.1469 271.297 9.425 271.297 9.425L264.5 0.453125Z" fill="#83BF4F"/>
<path d="M60.0312 25.6531H63.9688V29H60.0312V25.6531Z" fill="#947151"/>
<path d="M62 20.8156L53.5625 26.4969C53.5625 26.4969 57.6406 27.4531 62 27.4531C66.3594 27.4531 70.4375 26.4969 70.4375 26.4969L62 20.8156Z" fill="#71A03A"/>
<path d="M62 17.6375L54.9688 23.3188C54.9688 23.3188 58.3719 24.275 62 24.275C65.6281 24.275 69.0312 23.3188 69.0312 23.3188L62 17.6375Z" fill="#76AA3F"/>
<path d="M62 14.4594L56.375 20.1406C56.375 20.1406 59.1031 21.0969 62 21.0969C64.8969 21.0969 67.625 20.1406 67.625 20.1406L62 14.4594Z" fill="#7CB545"/>
<path d="M62 11.2812L57.7812 16.85C57.7812 16.85 59.8062 17.9188 62 17.9188C64.1938 17.9188 66.2188 16.85 66.2188 16.85L62 11.2812Z" fill="#83BF4F"/>
<path d="M208.297 26.9547H210.703V29H208.297V26.9547Z" fill="#947151"/>
<path d="M209.5 23.9984L204.344 27.4703C204.344 27.4703 206.836 28.0547 209.5 28.0547C212.164 28.0547 214.656 27.4703 214.656 27.4703L209.5 23.9984Z" fill="#71A03A"/>
<path d="M209.5 22.0563L205.203 25.5281C205.203 25.5281 207.283 26.1125 209.5 26.1125C211.717 26.1125 213.797 25.5281 213.797 25.5281L209.5 22.0563Z" fill="#76AA3F"/>
<path d="M209.5 20.1141L206.062 23.5859C206.062 23.5859 207.73 24.1703 209.5 24.1703C211.27 24.1703 212.938 23.5859 212.938 23.5859L209.5 20.1141Z" fill="#7CB545"/>
<path d="M209.5 18.1719L206.922 21.575C206.922 21.575 208.159 22.2281 209.5 22.2281C210.841 22.2281 212.078 21.575 212.078 21.575L209.5 18.1719Z" fill="#83BF4F"/>
<path d="M12.7656 24.3516H18.2344V29H12.7656V24.3516Z" fill="#947151"/>
<path d="M15.5 17.6328L3.78125 25.5234C3.78125 25.5234 9.44531 26.8516 15.5 26.8516C21.5547 26.8516 27.2188 25.5234 27.2188 25.5234L15.5 17.6328Z" fill="#71A03A"/>
<path d="M15.5 13.2188L5.73438 21.1094C5.73438 21.1094 10.4609 22.4375 15.5 22.4375C20.5391 22.4375 25.2656 21.1094 25.2656 21.1094L15.5 13.2188Z" fill="#76AA3F"/>
<path d="M15.5 8.80469L7.6875 16.6953C7.6875 16.6953 11.4766 18.0234 15.5 18.0234C19.5234 18.0234 23.3125 16.6953 23.3125 16.6953L15.5 8.80469Z" fill="#7CB545"/>
<path d="M15.5 4.39062L9.64062 12.125C9.64062 12.125 12.4531 13.6094 15.5 13.6094C18.5469 13.6094 21.3594 12.125 21.3594 12.125L15.5 4.39062Z" fill="#83BF4F"/>
<rect y="29" width="279" height="4" rx="2" fill="#8A570B"/>
</svg>
